<?xml version="1.0" encoding="UTF-8"?>
<svg xmlns="http://www.w3.org/2000/svg" xmlns:xlink="http://www.w3.org/1999/xlink" width="375pt" height="374.999991pt" viewBox="0 0 375 374.999991" version="1.2">
<defs>
<clipPath id="clip1">
  <path d="M 25.210938 11 L 349.960938 11 L 349.960938 364 L 25.210938 364 Z M 25.210938 11 "/>
</clipPath>
</defs>
<g id="surface1">
<g clip-path="url(#clip1)" clip-rule="nonzero">
<path style=" stroke:none;fill-rule:nonzero;fill:rgb(64.709473%,27.059937%,79.998779%);fill-opacity:1;" d="M 348.789062 129.476562 C 345.890625 121.265625 338.128906 114.1875 329.425781 114.1875 L 248.320312 114.1875 L 317.480469 48.34375 C 323.457031 42.519531 325.304688 32.652344 322.15625 24.910156 C 319.011719 17.179688 311.488281 11.121094 303.140625 11.121094 L 162.914062 11.121094 C 156.496094 11.121094 150.453125 15.914062 146.570312 21.015625 L 29.398438 175.914062 C 24.675781 182.121094 23.886719 189.976562 27.34375 196.976562 C 30.8125 203.964844 37.941406 207.882812 45.746094 207.882812 L 124.867188 207.882812 C 125.136719 207.882812 125.421875 209.746094 125.722656 210.1875 L 56.734375 333.015625 C 51.902344 341.597656 53.839844 352.644531 61.359375 359.011719 C 65.179688 362.242188 69.90625 363.988281 74.628906 363.988281 C 79.199219 363.988281 83.761719 362.535156 87.523438 359.488281 L 342.328125 153.0625 C 349.101562 147.589844 351.683594 137.679688 348.789062 129.476562 Z M 348.789062 129.476562 "/>
</g>
</g>
</svg>
